<?xml version="1.0" standalone="no"?>
<!DOCTYPE svg PUBLIC "-//W3C//DTD SVG 20010904//EN"
 "http://www.w3.org/TR/2001/REC-SVG-20010904/DTD/svg10.dtd">
<svg version="1.0" xmlns="http://www.w3.org/2000/svg"
 width="1280.000000pt" height="940.000000pt" viewBox="0 0 1280.000000 940.000000"
 preserveAspectRatio="xMidYMid meet">
<metadata>
Created by potrace 1.15, written by Peter Selinger 2001-2017
</metadata>
<g transform="translate(0.000000,940.000000) scale(0.100000,-0.100000)"
fill="#000000" stroke="none">
<path d="M7180 9382 c-19 -9 -45 -32 -57 -51 -22 -33 -31 -95 -15 -104 4 -3
34 6 67 21 42 17 84 27 140 30 70 4 89 1 146 -22 36 -14 73 -26 82 -26 25 0
22 60 -6 101 -37 56 -75 69 -207 69 -90 0 -123 -4 -150 -18z"/>
<path d="M8764 9386 c-38 -17 -71 -57 -84 -104 -16 -59 2 -66 85 -31 89 36
179 39 263 8 31 -12 69 -24 85 -26 25 -5 27 -3 27 29 0 45 -36 98 -80 120 -44
23 -247 25 -296 4z"/>
<path d="M6627 9189 c-192 -25 -386 -137 -502 -291 -74 -98 -118 -203 -170
-403 -56 -221 -110 -395 -140 -455 -87 -172 -422 -344 -910 -468 -243 -62
-749 -161 -761 -150 -2 3 5 25 16 49 23 52 27 154 7 202 -21 49 -65 95 -121
127 -68 39 -104 39 -592 -5 -214 -20 -522 -47 -684 -60 -162 -14 -313 -27
-335 -30 -22 -3 -96 -10 -165 -15 -236 -18 -438 -40 -464 -50 -38 -14 -115
-89 -138 -134 -29 -57 -29 -157 1 -214 12 -24 21 -46 18 -48 -2 -2 -150 -8
-328 -14 -362 -10 -430 -20 -604 -85 -228 -86 -386 -186 -528 -335 -95 -100
-161 -214 -199 -346 l-23 -79 0 -2840 0 -2840 23 -79 c13 -44 39 -111 58 -150
105 -209 298 -368 539 -443 l90 -28 5675 0 5675 0 85 23 c335 91 592 375 640
708 8 58 10 814 8 2869 l-4 2790 -23 70 c-54 164 -146 303 -292 440 -85 81
-154 128 -285 197 -229 121 -470 208 -1098 398 -148 44 -303 96 -343 115 -139
64 -252 161 -329 280 -90 142 -121 253 -135 490 -12 202 -27 273 -79 380 -95
196 -268 339 -490 407 l-75 23 -1475 1 c-821 1 -1505 -2 -1543 -7z m923 -158
c57 -18 1088 -14 1170 4 73 16 265 18 350 4 30 -5 100 -13 155 -19 346 -36
373 -40 459 -69 49 -16 114 -47 143 -67 65 -45 151 -137 177 -191 10 -21 22
-46 27 -56 18 -33 38 -142 49 -257 14 -146 30 -259 40 -279 4 -9 16 -43 26
-76 38 -124 164 -336 245 -411 147 -137 409 -266 669 -329 105 -25 228 -77
237 -100 6 -18 -23 -55 -44 -55 -7 0 -13 -4 -13 -10 0 -5 -6 -10 -13 -10 -24
0 -143 -89 -214 -160 -173 -174 -241 -440 -173 -674 62 -211 273 -430 475
-492 89 -28 314 -26 411 3 214 63 389 236 461 453 25 77 28 99 28 226 0 84 -5
151 -11 165 -6 13 -18 53 -27 89 -8 36 -18 75 -22 88 -6 19 -4 22 17 22 14 0
37 -9 51 -20 14 -11 30 -20 37 -20 42 0 195 -170 242 -270 16 -36 34 -72 38
-81 4 -8 16 -60 26 -115 18 -95 19 -214 19 -2819 0 -2862 2 -2752 -42 -2875
-41 -113 -186 -280 -285 -327 -76 -37 -118 -53 -138 -53 -10 0 -22 -5 -25 -11
-4 -5 -12 -8 -18 -6 -7 2 -21 -1 -32 -7 -14 -7 -377 -13 -1220 -18 -1116 -6
-1285 -10 -1575 -37 -58 -6 -139 -13 -180 -16 l-75 -6 135 49 c300 108 568
231 771 354 586 354 1065 870 1372 1476 89 175 121 251 189 445 210 605 258
1227 142 1857 -135 734 -491 1402 -1025 1925 -284 278 -583 492 -931 664 -466
230 -897 344 -1416 373 -542 30 -1061 -55 -1572 -257 -269 -106 -659 -335
-905 -531 -142 -113 -458 -429 -565 -564 -294 -373 -508 -778 -639 -1211 -156
-518 -197 -1052 -121 -1579 20 -133 28 -177 65 -345 38 -171 147 -480 242
-685 223 -481 599 -954 1033 -1299 334 -266 731 -476 1212 -641 37 -13 66 -25
64 -28 -6 -5 -465 36 -496 45 -14 4 -1274 8 -2800 9 -1849 1 -2815 5 -2895 12
-115 10 -209 33 -280 69 -70 36 -170 111 -215 161 -53 60 -146 220 -156 270
-4 17 -10 32 -13 32 -29 0 -31 142 -31 2790 0 2669 1 2790 32 2790 4 0 8 7 8
16 0 25 56 148 96 211 49 77 167 192 255 249 120 77 297 157 392 178 111 25
229 38 422 45 165 7 229 13 251 24 37 19 82 63 101 100 11 23 19 28 36 22 98
-30 130 -33 270 -24 78 6 151 15 162 20 13 6 -17 7 -90 3 -215 -14 -243 -8
-269 58 -23 55 -21 58 21 37 45 -23 74 -24 113 -4 52 27 60 49 60 167 l0 108
44 0 c49 0 49 0 61 -95 11 -86 32 -131 69 -149 42 -20 60 -20 100 -1 53 25 66
59 66 174 l0 101 39 0 c22 0 42 -4 45 -9 3 -5 11 -44 17 -87 14 -97 30 -130
73 -151 46 -22 98 -11 130 28 24 29 26 37 26 140 l0 109 30 2 c17 0 35 1 42 2
14 1 23 -28 39 -124 10 -63 17 -80 44 -107 37 -37 77 -43 126 -17 44 22 59 67
59 179 l0 95 39 0 c22 0 42 -4 45 -9 3 -5 11 -44 17 -87 7 -44 18 -92 26 -107
31 -61 125 -73 174 -21 22 23 24 37 29 137 l5 112 39 3 c47 4 52 -3 61 -82 9
-88 22 -122 58 -152 26 -22 38 -25 75 -21 30 3 53 13 70 31 24 24 27 34 32
138 l5 113 38 6 c36 6 37 5 46 -30 5 -20 12 -61 16 -92 7 -65 35 -116 71 -129
42 -16 89 -12 119 12 l28 22 -6 -43 c-7 -54 -28 -78 -86 -96 l-46 -14 40 0
c22 0 65 9 95 20 84 31 100 34 100 16 0 -20 83 -95 115 -103 31 -8 188 3 255
17 25 5 90 18 145 29 552 107 819 197 1065 356 94 60 215 181 274 271 39 61
55 91 87 168 7 17 51 163 64 215 2 8 14 51 25 95 57 222 109 326 209 422 103
99 245 152 467 173 160 15 299 31 354 41 60 10 326 3 370 -10z m810 -1816
c107 -9 202 -18 210 -21 8 -3 65 -14 125 -25 61 -10 144 -28 185 -40 41 -11
84 -22 95 -25 61 -12 145 -38 182 -55 24 -10 49 -19 57 -19 8 0 17 -4 20 -9 4
-5 29 -15 56 -22 28 -7 50 -16 50 -20 0 -4 12 -10 27 -14 32 -8 286 -116 293
-125 3 -3 21 -12 40 -20 19 -8 37 -17 40 -20 3 -3 20 -12 38 -20 19 -7 39 -18
45 -24 7 -6 28 -19 47 -29 72 -37 90 -48 90 -56 0 -5 11 -11 23 -15 27 -6 247
-168 347 -254 292 -251 602 -616 771 -906 69 -119 162 -293 164 -306 1 -3 8
-18 16 -35 9 -16 26 -57 38 -90 13 -33 31 -76 42 -96 10 -20 19 -43 19 -50 0
-8 6 -25 13 -39 7 -14 19 -47 27 -75 7 -27 16 -54 20 -60 4 -5 14 -37 21 -70
7 -33 16 -62 19 -65 6 -5 41 -154 42 -180 1 -8 4 -19 8 -25 5 -5 14 -55 21
-110 7 -55 17 -106 23 -114 14 -18 21 -824 8 -941 -14 -121 -51 -342 -61 -360
-4 -8 -14 -46 -21 -85 -8 -38 -17 -74 -20 -80 -4 -5 -13 -34 -20 -64 -7 -30
-19 -66 -26 -80 -8 -14 -14 -32 -14 -39 0 -8 -6 -28 -14 -45 -8 -18 -22 -54
-32 -82 -9 -27 -21 -54 -24 -60 -4 -5 -11 -21 -15 -35 -23 -76 -148 -325 -249
-494 -147 -245 -279 -412 -509 -645 -227 -229 -449 -409 -672 -543 -83 -50
-374 -198 -390 -198 -3 0 -31 -11 -61 -25 -30 -14 -61 -25 -69 -25 -7 0 -17
-5 -20 -11 -4 -6 -13 -8 -20 -5 -7 2 -16 1 -21 -4 -14 -12 -143 -48 -224 -61
-41 -7 -79 -15 -85 -19 -10 -8 -190 -23 -475 -40 -409 -25 -1381 2 -1504 41
-16 5 -59 14 -95 19 -56 9 -157 36 -211 57 -8 4 -17 7 -20 8 -3 1 -14 5 -25 9
-11 4 -33 12 -50 18 -39 13 -68 26 -196 87 -59 28 -110 51 -113 51 -4 0 -57
30 -118 68 -60 37 -124 75 -140 85 -16 10 -61 42 -98 72 -38 30 -72 55 -75 55
-3 0 -11 5 -18 10 -7 6 -46 37 -87 71 -141 114 -251 214 -353 324 -139 148
-347 409 -347 435 0 5 -4 10 -9 10 -8 0 -74 100 -145 220 -15 25 -31 52 -36
60 -39 64 -196 409 -205 449 -4 17 -10 31 -15 31 -4 0 -10 12 -13 28 -3 15
-11 41 -18 57 -7 17 -13 32 -14 35 -1 3 -4 12 -8 20 -3 8 -11 40 -18 70 -6 30
-15 57 -18 60 -6 4 -40 140 -45 180 -1 9 -5 20 -8 26 -4 5 -12 50 -18 99 -6
50 -15 97 -20 106 -4 9 -14 68 -20 131 -17 165 -7 884 13 993 9 44 21 107 27
140 6 33 14 67 17 75 4 8 5 19 4 24 -1 6 2 19 8 30 5 12 15 46 22 76 6 30 15
60 19 65 4 6 11 27 14 49 4 21 12 50 18 65 6 14 12 31 13 36 0 6 6 22 12 36 7
15 15 43 18 63 4 20 11 36 15 36 4 0 12 19 19 42 21 69 150 340 221 463 22 39
45 80 52 93 6 12 15 22 20 22 4 0 8 4 8 10 0 14 63 111 140 215 183 246 402
479 620 657 52 43 102 85 111 93 9 8 19 15 23 15 3 0 32 20 64 45 31 25 61 45
66 45 4 0 25 13 45 28 44 35 159 104 165 100 2 -2 12 4 22 13 32 28 298 159
323 159 5 0 11 4 13 8 3 7 56 30 163 68 22 8 54 21 72 29 17 8 36 15 43 15 7
0 26 7 43 15 57 26 298 89 422 110 50 8 108 20 130 26 62 16 352 36 535 38 91
0 253 -6 360 -14z m3331 -196 c133 -43 236 -122 315 -240 125 -188 127 -447 6
-635 -207 -318 -645 -368 -913 -103 -71 70 -132 175 -160 274 -19 72 -17 227
5 300 68 224 254 390 476 425 78 12 197 3 271 -21z"/>
<path d="M6873 8890 c-96 -34 -177 -84 -244 -151 -179 -178 -220 -456 -102
-682 72 -137 181 -229 339 -286 l85 -31 1174 0 1174 0 85 31 c158 57 267 149
339 286 68 130 84 273 47 417 -44 174 -148 299 -315 382 l-98 49 -1216 2
c-1165 2 -1218 1 -1268 -17z m2457 -77 c83 -22 96 -28 185 -86 42 -27 74 -59
108 -107 26 -38 47 -73 47 -78 0 -5 8 -24 18 -43 14 -28 17 -60 17 -174 0
-138 0 -141 -34 -210 -41 -86 -159 -206 -237 -242 -130 -59 -63 -56 -1239 -60
-1045 -4 -1187 -1 -1295 27 -124 32 -253 141 -317 269 l-38 75 0 146 c0 162 6
181 89 304 36 51 137 136 163 136 4 0 21 7 37 15 95 50 185 53 1386 50 1003
-2 1037 -3 1110 -22z"/>
<path d="M3753 7313 c15 -2 39 -2 55 0 15 2 2 4 -28 4 -30 0 -43 -2 -27 -4z"/>
<path d="M3643 7303 c9 -2 25 -2 35 0 9 3 1 5 -18 5 -19 0 -27 -2 -17 -5z"/>
<path d="M3380 7284 l-75 -13 85 4 c47 3 99 5 115 5 23 0 27 3 15 10 -18 12
-44 11 -140 -6z"/>
<path d="M3053 7262 c-24 -2 -43 -7 -43 -12 0 -11 175 -1 205 11 19 8 -57 9
-162 1z"/>
<path d="M2691 7227 c-64 -5 -108 -13 -100 -17 8 -4 52 -4 99 0 47 5 95 9 108
9 12 1 22 6 22 11 0 6 -3 9 -7 8 -5 0 -59 -5 -122 -11z"/>
<path d="M2903 7233 c9 -2 23 -2 30 0 6 3 -1 5 -18 5 -16 0 -22 -2 -12 -5z"/>
<path d="M2340 7195 l-55 -13 50 0 c73 0 192 14 140 17 -22 1 -49 3 -60 5 -11
2 -45 -2 -75 -9z"/>
<path d="M2129 6751 c-137 -6 -148 -8 -186 -33 -74 -49 -104 -158 -68 -246 20
-47 50 -79 97 -103 36 -18 72 -19 913 -19 847 0 877 1 914 19 51 26 99 83 107
126 3 20 4 61 2 91 -6 65 -42 116 -108 151 l-43 23 -741 -2 c-408 -1 -807 -4
-887 -7z m1583 -81 c20 -6 50 -25 67 -42 25 -25 31 -40 31 -74 0 -24 -6 -49
-15 -57 -8 -8 -11 -17 -8 -21 4 -3 1 -6 -6 -6 -6 0 -26 -10 -42 -22 -30 -23
-38 -23 -442 -32 -236 -5 -591 -5 -832 1 l-420 9 -32 23 c-18 13 -39 42 -48
64 -15 38 -15 43 2 81 20 47 36 62 78 75 42 13 1620 14 1667 1z"/>
<path d="M1220 5740 c-111 -5 -158 -12 -198 -28 -160 -62 -273 -191 -316 -359
-20 -77 -20 -228 -1 -311 27 -113 87 -207 180 -280 61 -48 90 -63 196 -102
212 -77 386 -219 492 -402 l47 -82 0 -1646 c0 -1833 -5 -1694 70 -1840 76
-146 212 -253 380 -299 72 -20 99 -21 691 -21 583 0 620 1 694 20 196 50 351
195 422 395 l28 80 3 2090 c1 1150 -1 2165 -6 2257 l-9 168 -41 84 c-47 95
-120 171 -212 220 -112 61 -68 59 -1220 61 -580 1 -1120 -1 -1200 -5z m2337
-102 c34 -14 68 -31 75 -37 100 -81 158 -157 186 -244 16 -48 17 -218 17
-2257 0 -1832 -2 -2213 -14 -2250 -20 -66 -61 -149 -99 -200 -44 -57 -174
-153 -232 -169 -25 -8 -58 -18 -75 -25 -42 -16 -1268 -16 -1310 0 -16 7 -50
18 -75 25 -105 30 -233 147 -288 263 -18 37 -32 72 -32 79 -1 7 -8 30 -17 52
-16 37 -18 183 -23 1677 -4 1232 -8 1640 -17 1649 -6 6 -9 18 -6 25 3 8 1 14
-5 14 -5 0 -12 14 -16 31 -13 68 -196 274 -306 345 -25 16 -47 32 -50 35 -3 3
-22 12 -42 20 -21 7 -38 17 -38 21 0 4 -6 8 -14 8 -7 0 -30 7 -50 15 -20 8
-38 15 -41 15 -15 -1 -108 55 -158 95 -141 112 -200 315 -148 510 48 181 180
302 356 328 17 2 554 4 1195 3 l1165 -1 62 -27z"/>
<path d="M2308 5495 c-4 -5 -49 -11 -100 -16 -92 -8 -121 -17 -207 -65 -38
-22 -46 -23 -65 -11 -11 7 -45 21 -75 31 -48 15 -65 16 -166 5 -99 -10 -118
-10 -160 5 -83 28 -106 23 -171 -36 -97 -89 -114 -119 -114 -203 0 -69 2 -73
44 -131 25 -32 62 -72 83 -89 35 -28 44 -30 108 -28 39 1 124 2 189 3 121 1
205 13 217 31 3 5 22 12 42 16 28 4 48 -1 86 -21 82 -42 288 -73 383 -57 63
11 70 13 98 24 8 3 44 11 79 17 36 7 74 18 85 26 26 18 76 18 101 0 71 -49
115 -66 177 -66 77 0 294 17 364 29 59 11 113 54 171 139 35 50 38 60 38 126
0 67 -3 75 -37 121 -42 58 -101 113 -147 138 -27 14 -60 17 -201 17 -93 0
-171 -4 -174 -9 -3 -4 -27 -11 -54 -15 -26 -3 -63 -16 -82 -29 -19 -12 -51
-31 -71 -41 -35 -19 -36 -19 -80 6 -40 23 -81 45 -134 71 -24 13 -217 22 -227
12z m176 -183 c7 -27 12 -31 33 -26 34 9 81 -14 98 -47 8 -15 15 -49 15 -74 0
-42 -2 -46 -22 -43 -19 2 -24 10 -26 48 -4 52 -16 70 -47 70 -31 0 -44 -19
-51 -74 -5 -36 -11 -46 -25 -46 -17 0 -19 9 -19 108 0 60 3 112 7 116 13 12
28 0 37 -32z m587 12 c13 -15 6 -26 -25 -37 -16 -5 4 -27 25 -27 49 0 76 -72
43 -118 -12 -18 -25 -22 -65 -22 -43 0 -50 3 -47 18 2 11 14 18 35 20 66 6 66
58 0 64 -30 3 -32 6 -35 47 -2 24 -1 50 2 57 7 19 50 18 67 -2z m253 -9 c32
-21 58 -78 50 -109 -3 -13 -19 -38 -36 -55 -80 -81 -221 6 -177 110 6 17 28
41 48 55 39 27 72 27 115 -1z m-1819 -30 c0 -14 -8 -21 -28 -23 -37 -4 -30
-25 11 -33 18 -4 39 -12 47 -19 18 -15 20 -61 3 -78 -13 -13 -148 -17 -148 -4
0 18 26 32 61 32 21 0 40 4 43 9 7 10 -16 21 -44 21 -10 0 -28 12 -39 26 -19
24 -19 28 -6 54 16 30 34 39 75 37 18 -2 25 -8 25 -22z m1424 16 c21 -13 5
-41 -23 -41 -36 0 -42 -18 -9 -25 75 -16 98 -46 69 -90 -15 -22 -24 -25 -81
-25 -49 0 -65 3 -65 14 0 18 22 26 71 26 21 0 39 4 39 9 0 11 -25 21 -49 21
-27 0 -53 35 -49 66 4 41 62 67 97 45z m-1204 -32 c14 -25 21 -30 48 -27 23 2
35 10 45 31 14 29 39 36 48 13 3 -8 -2 -28 -10 -44 -14 -27 -14 -33 0 -61 9
-18 13 -38 10 -46 -9 -24 -34 -17 -48 13 -22 46 -98 40 -98 -9 0 -12 -7 -19
-20 -19 -15 0 -20 7 -20 28 0 15 5 33 12 40 9 9 9 18 0 37 -29 64 2 105 33 44z
m499 0 c22 -25 26 -41 26 -90 0 -46 -3 -59 -15 -59 -9 0 -20 12 -25 26 -9 23
-14 26 -42 20 -18 -3 -42 -16 -55 -27 -45 -43 -68 5 -43 90 15 53 37 71 86 71
35 0 47 -5 68 -31z m151 11 c0 -9 -11 -16 -27 -18 -16 -2 -28 -8 -28 -13 0
-10 8 -14 53 -23 36 -8 55 -46 39 -81 -11 -23 -17 -25 -78 -25 -57 0 -65 2
-62 18 2 13 15 18 51 20 33 2 47 7 47 18 0 9 -10 14 -28 14 -57 0 -87 44 -61
91 8 16 19 19 52 17 29 -2 42 -8 42 -18z m-725 -86 c0 -11 -9 -14 -37 -12 -52
4 -56 28 -4 28 30 0 41 -4 41 -16z"/>
<path d="M3221 5271 c-28 -28 -27 -75 1 -95 48 -34 98 -7 98 51 0 34 -13 48
-52 58 -19 5 -32 1 -47 -14z"/>
<path d="M2128 5249 c-10 -5 -18 -19 -18 -30 0 -17 5 -19 38 -14 66 11 70 14
43 36 -26 21 -38 23 -63 8z"/>
<path d="M7780 6734 c-19 -2 -78 -9 -130 -15 -564 -63 -1149 -319 -1604 -700
-369 -309 -689 -749 -869 -1194 -238 -590 -289 -1212 -151 -1832 156 -700 570
-1341 1150 -1779 622 -469 1408 -687 2179 -603 587 63 1149 297 1615 672 129
104 381 359 480 487 261 337 459 739 560 1135 77 304 94 460 87 834 -4 232 -9
310 -26 411 -79 456 -236 853 -482 1220 -136 203 -210 292 -388 470 -183 182
-273 256 -474 391 -381 253 -840 427 -1287 484 -118 16 -576 29 -660 19z m629
-69 c216 -27 443 -80 631 -148 431 -155 803 -391 1125 -712 506 -506 811
-1155 876 -1864 17 -189 7 -546 -21 -725 -78 -514 -289 -1000 -617 -1421 -145
-186 -380 -412 -583 -562 -137 -101 -220 -153 -361 -227 -496 -261 -969 -370
-1529 -353 -258 8 -431 31 -654 88 -267 68 -568 195 -821 346 -248 149 -553
412 -752 648 -267 318 -499 772 -603 1179 -61 238 -81 393 -87 673 -6 280 5
439 48 658 171 882 731 1646 1524 2078 365 200 742 312 1200 357 125 12 475 4
624 -15z"/>
<path d="M7835 6634 c-376 -40 -484 -61 -760 -151 -173 -57 -343 -131 -500
-218 -144 -81 -144 -81 -275 -174 -552 -390 -947 -956 -1139 -1631 -74 -263
-101 -469 -101 -790 0 -236 4 -288 37 -505 49 -327 206 -745 393 -1052 290
-474 713 -862 1205 -1102 193 -94 259 -121 435 -176 319 -101 494 -125 899
-125 421 0 597 26 950 142 308 101 692 309 923 500 193 159 471 462 595 649
277 414 454 913 493 1386 47 571 -48 1092 -289 1587 -145 297 -298 517 -515
743 -492 513 -1101 817 -1796 899 -124 14 -479 26 -555 18z m605 -108 c466
-74 904 -250 1260 -506 208 -150 429 -358 583 -550 222 -276 428 -669 520
-995 35 -126 63 -252 84 -385 26 -164 26 -685 0 -845 -80 -499 -261 -925 -560
-1324 -89 -119 -362 -399 -482 -495 -358 -286 -763 -482 -1190 -574 -244 -53
-286 -57 -635 -57 -289 0 -339 3 -451 22 -121 22 -383 84 -424 102 -11 5 -67
26 -125 46 -139 50 -449 206 -580 294 -552 367 -965 915 -1169 1550 -99 307
-143 674 -122 1027 25 433 112 750 313 1146 438 864 1303 1457 2273 1558 132
14 585 5 705 -14z"/>
<path d="M7823 6039 c-577 -51 -1125 -315 -1518 -731 -359 -380 -577 -845
-641 -1368 -20 -164 -15 -469 11 -630 107 -675 490 -1268 1060 -1639 274 -179
567 -290 940 -357 142 -26 543 -27 700 -1 165 27 370 80 500 131 564 221 1007
620 1276 1150 119 234 197 472 236 726 25 164 25 520 -1 685 -133 868 -688
1563 -1504 1884 -318 125 -713 181 -1059 150z m357 -99 c317 -24 581 -95 855
-230 241 -119 431 -257 626 -456 351 -360 564 -803 630 -1314 7 -52 13 -176
13 -275 0 -268 -30 -461 -109 -700 -153 -467 -442 -860 -840 -1147 -302 -217
-643 -353 -1030 -410 -118 -17 -473 -17 -590 1 -275 40 -508 113 -740 231
-578 292 -1010 829 -1170 1453 -55 216 -69 334 -69 572 0 276 27 457 105 701
257 804 953 1407 1789 1549 184 32 341 39 530 25z"/>
<path d="M7854 5900 c-930 -77 -1718 -717 -1978 -1606 -61 -210 -78 -322 -83
-576 -5 -211 -3 -251 17 -373 102 -643 444 -1182 975 -1537 132 -89 351 -200
490 -248 649 -226 1361 -150 1934 205 557 345 932 910 1037 1561 25 158 30
465 9 620 -34 255 -103 482 -215 709 -181 368 -446 666 -795 895 -190 124
-490 250 -710 299 -208 46 -489 67 -681 51z m411 -151 c659 -76 1231 -448
1573 -1023 113 -189 195 -404 249 -651 27 -126 28 -140 28 -410 0 -268 -1
-286 -28 -410 -159 -743 -685 -1337 -1395 -1574 -515 -172 -1093 -134 -1579
104 -356 174 -660 447 -865 777 -653 1051 -258 2432 852 2984 365 181 758 249
1165 203z"/>
<path d="M7905 5180 c-183 -23 -235 -33 -245 -45 -6 -8 -18 -11 -26 -8 -8 3
-14 1 -14 -5 0 -6 -14 -14 -32 -17 -17 -4 -38 -14 -46 -21 -7 -8 -21 -14 -30
-14 -9 0 -26 -7 -36 -15 -10 -8 -22 -12 -26 -10 -4 3 -13 -2 -20 -10 -7 -8
-19 -15 -27 -15 -7 0 -16 -7 -19 -15 -4 -8 -10 -15 -15 -15 -5 0 -55 -32 -111
-70 -371 -253 -585 -565 -669 -974 -18 -89 -20 -127 -16 -316 3 -192 7 -226
30 -312 88 -331 269 -607 532 -812 149 -116 393 -266 434 -266 7 0 25 -9 40
-19 83 -59 449 -88 666 -52 39 7 87 13 108 15 21 2 46 11 56 20 10 9 21 16 25
16 14 0 116 51 122 62 4 5 21 16 38 24 37 17 206 127 284 185 32 24 104 90
162 148 207 208 338 453 402 755 32 151 30 407 -5 566 -72 337 -243 622 -503
838 -93 78 -335 237 -406 266 -20 9 -38 23 -42 32 -4 9 -9 14 -13 11 -6 -7
-65 21 -74 35 -4 6 -26 11 -50 13 -24 2 -87 8 -139 15 -145 16 -258 20 -335
10z m455 -87 c66 -18 177 -60 125 -48 -131 31 -324 55 -439 55 -162 0 -418
-39 -543 -83 -24 -8 -43 -11 -43 -7 0 4 8 10 18 13 9 3 42 15 72 27 30 11 105
32 165 45 102 23 126 24 340 21 191 -3 243 -7 305 -23z m-90 -49 c179 -28 370
-106 542 -221 101 -67 273 -236 348 -340 107 -151 180 -312 228 -503 24 -95
26 -123 27 -305 0 -215 -8 -273 -62 -445 -35 -110 -116 -269 -190 -373 -75
-105 -237 -268 -333 -333 -222 -152 -423 -225 -672 -244 -397 -31 -730 72
-1028 319 -239 197 -423 515 -476 821 -22 131 -15 460 14 570 124 487 471 858
944 1011 204 66 421 80 658 43z m-697 -2744 c320 -77 483 -86 750 -40 133 23
145 24 132 12 -9 -8 -81 -25 -223 -52 -70 -13 -314 -13 -405 1 -101 15 -254
54 -307 77 -58 26 -47 27 53 2z"/>
<path d="M7872 4839 c-153 -20 -315 -76 -452 -159 -270 -162 -475 -445 -547
-755 -14 -63 -18 -119 -17 -265 0 -166 3 -195 26 -281 83 -308 266 -555 532
-720 96 -59 193 -100 318 -135 77 -21 121 -27 258 -31 143 -4 179 -2 269 17
696 143 1108 843 895 1522 -115 367 -447 682 -819 777 -150 39 -315 50 -463
30z m383 -38 c502 -104 869 -510 925 -1023 27 -244 -44 -532 -184 -742 -173
-259 -429 -434 -738 -502 -115 -26 -357 -22 -478 6 -238 57 -417 157 -581 327
-99 103 -159 188 -218 314 -61 130 -87 230 -102 387 -53 590 336 1108 931
1236 99 22 335 20 445 -3z"/>
<path d="M7856 4770 c-360 -57 -666 -284 -826 -614 -147 -304 -155 -616 -24
-931 127 -303 412 -546 744 -637 75 -20 108 -23 280 -23 171 0 205 3 277 23
322 88 582 303 724 597 27 55 61 141 76 190 25 84 27 102 27 285 0 180 -2 202
-26 293 -32 116 -101 265 -162 351 -52 72 -210 232 -279 280 -92 66 -262 141
-387 171 -78 19 -339 28 -424 15z m431 -204 c51 -14 124 -41 162 -61 81 -41
88 -42 61 -15 -25 25 -26 45 -2 35 9 -4 26 -10 37 -13 11 -2 27 -10 35 -17 8
-7 21 -14 27 -16 43 -13 253 -208 253 -235 0 -8 4 -14 9 -14 12 0 76 -109 91
-156 7 -22 16 -41 19 -44 10 -8 51 -141 61 -199 13 -72 13 -253 -1 -327 -10
-57 -46 -179 -58 -199 -3 -5 -6 -12 -7 -15 -7 -33 -80 -161 -96 -168 -5 -2 -8
-10 -8 -18 0 -25 -229 -244 -254 -244 -5 0 -21 -9 -37 -21 -16 -11 -39 -21
-51 -22 -13 0 -26 -6 -30 -12 -4 -5 -8 2 -8 18 l0 27 -41 -21 c-49 -24 -162
-62 -240 -79 -37 -8 -108 -11 -210 -8 -138 5 -164 8 -249 36 -299 99 -527 331
-616 627 -36 121 -45 321 -20 446 74 365 367 656 741 735 101 21 321 11 432
-20z"/>
<path d="M8570 4446 c0 -2 8 -10 18 -17 15 -13 16 -12 3 4 -13 16 -21 21 -21
13z"/>
<path d="M7850 4372 c-224 -61 -409 -221 -493 -429 -42 -103 -52 -161 -51
-288 1 -101 5 -133 27 -200 46 -140 141 -279 245 -356 86 -64 189 -114 277
-135 122 -28 340 -16 411 24 8 4 -31 7 -86 7 -55 -1 -128 2 -164 6 -102 13
-276 75 -276 100 0 5 -5 9 -10 9 -49 0 -211 173 -252 270 -10 25 -27 59 -36
75 -14 25 -17 59 -17 210 0 175 1 182 28 240 15 33 32 67 37 75 6 8 14 24 19
36 15 33 159 182 191 196 17 7 30 16 30 19 0 3 19 14 43 24 23 9 53 23 67 30
56 29 160 48 295 54 l140 6 -55 19 c-81 27 -283 31 -370 8z"/>
<path d="M8300 4325 c7 -8 20 -15 28 -15 13 0 12 3 -4 15 -25 19 -40 19 -24 0z"/>
<path d="M8569 2893 c-13 -16 -12 -17 4 -4 16 13 21 21 13 21 -2 0 -10 -8 -17
-17z"/>
<path d="M11391 6934 c-120 -32 -245 -125 -304 -227 -34 -57 -67 -182 -67
-251 0 -161 101 -339 239 -419 122 -72 302 -88 434 -37 129 49 246 174 287
306 39 126 22 291 -41 400 -36 63 -133 156 -198 189 -106 53 -241 68 -350 39z
m272 -117 c75 -34 127 -75 171 -135 139 -189 68 -462 -149 -575 -56 -29 -67
-31 -170 -32 -102 0 -114 2 -168 30 -86 43 -139 94 -183 177 -38 71 -39 76
-39 173 0 87 4 107 27 157 45 98 142 186 246 225 61 22 195 12 265 -20z"/>
<path d="M11416 6710 c-167 -65 -226 -268 -121 -412 47 -64 109 -99 190 -106
91 -7 146 11 210 70 64 58 87 110 87 194 -1 194 -188 323 -366 254z m139 -155
c6 -6 15 -10 22 -8 7 2 22 -17 34 -44 21 -47 21 -48 3 -83 -11 -19 -35 -45
-54 -58 -44 -29 -84 -22 -127 24 -36 37 -43 79 -20 127 24 52 112 78 142 42z"/>
</g>
</svg>
